<svg width="459" height="128" viewBox="0 0 459 128" fill="none" xmlns="http://www.w3.org/2000/svg">
    <path d="M184.223 50.7078V48.4159H185.813C186.499 48.4159 187.029 48.2756 187.404 47.9949C187.778 47.7143 187.965 47.0439 187.965 45.9837V26.3387H184.925C183.771 26.3387 182.96 26.5726 182.492 27.0403C182.056 27.508 181.791 28.1941 181.697 29.0983L181.417 31.3903H178.797L178.938 24H203.073L203.26 31.3903H200.594L200.313 29.0983C200.22 28.1941 199.955 27.508 199.518 27.0403C199.081 26.5726 198.286 26.3387 197.133 26.3387H194.045V46.0304C194.045 47.0595 194.233 47.7143 194.607 47.9949C195.012 48.2756 195.558 48.4159 196.244 48.4159H197.787V50.7078H184.223Z" fill="black"/>
    <path d="M208.246 50.7078V48.4159H209.602C210.319 48.4159 210.881 48.2756 211.286 47.9949C211.691 47.7143 211.894 47.0595 211.894 46.0304V28.5371C211.894 27.5704 211.676 26.9623 211.239 26.7129C210.803 26.4322 210.257 26.2919 209.602 26.2919H208.246V24H221.389V26.2919H220.267C219.612 26.2919 219.066 26.4322 218.629 26.7129C218.193 26.9623 217.975 27.6172 217.975 28.6774V35.5063H228.499V28.6774C228.499 27.6172 228.28 26.9623 227.844 26.7129C227.407 26.4322 226.846 26.2919 226.16 26.2919H225.084V24H238.228V26.2919H236.871C236.185 26.2919 235.624 26.4322 235.187 26.7129C234.782 26.9623 234.579 27.6172 234.579 28.6774V46.2175C234.579 47.1842 234.782 47.7922 235.187 48.0417C235.593 48.2912 236.154 48.4159 236.871 48.4159H238.228V50.7078H225.084V48.4159H226.16C226.877 48.4159 227.439 48.2756 227.844 47.9949C228.28 47.7143 228.499 47.0595 228.499 46.0304V37.845H217.975V46.0304C217.975 47.0595 218.177 47.7143 218.583 47.9949C219.019 48.2756 219.581 48.4159 220.267 48.4159H221.389V50.7078H208.246Z" fill="black"/>
    <path d="M243.757 50.7078V48.4159H245.114C245.8 48.4159 246.345 48.2912 246.751 48.0417C247.187 47.7922 247.406 47.1686 247.406 46.1708V28.7241C247.406 27.6639 247.187 26.9935 246.751 26.7129C246.345 26.4322 245.8 26.2919 245.114 26.2919H243.757V24H265.601L265.788 31.0628H262.981L262.794 29.2387C262.669 28.272 262.389 27.5548 261.952 27.0871C261.547 26.5882 260.892 26.3387 259.988 26.3387H253.486V35.5063H262.701V37.845H253.486V48.3223H261.204C262.046 48.3223 262.669 48.0573 263.075 47.5272C263.511 46.9971 263.808 46.3111 263.963 45.4691L264.291 43.645H267.004L266.723 50.7078H243.757Z" fill="black"/>
    <path d="M24 103.453V100.771H25.6968C26.6456 100.771 27.4483 100.57 28.1051 100.169C28.7985 99.7306 29.1451 98.7089 29.1451 97.1034V70.502C29.1451 69.006 28.7985 68.0572 28.1051 67.6558C27.4118 67.2544 26.6091 67.0537 25.6968 67.0537H24V64.3717H35.3302L54.7612 92.7793V70.502C54.7612 69.006 54.4145 68.0572 53.7212 67.6558C53.0279 67.2544 52.2251 67.0537 51.3129 67.0537H49.6161V64.3717H63.683V67.0537H61.9862C61.074 67.0537 60.2712 67.2727 59.5779 67.7105C58.9211 68.1119 58.5927 69.1154 58.5927 70.721V103.453H53.9949L32.9218 72.8009V97.1034C32.9218 98.7089 33.2503 99.7306 33.9071 100.169C34.6004 100.57 35.4214 100.771 36.3702 100.771H38.067V103.453H24Z" fill="black"/>
    <path d="M67.7497 103.453V100.771H69.4465C70.3587 100.771 71.1615 100.588 71.8548 100.223C72.5481 99.8219 72.8948 98.8731 72.8948 97.377V70.721C72.8948 69.1154 72.5481 68.1119 71.8548 67.7105C71.198 67.2727 70.3952 67.0537 69.4465 67.0537H67.7497V64.3717H97.033L97.3067 74.2788H93.8583L93.5846 71.761C93.4387 70.4838 93.0556 69.4621 92.4352 68.6958C91.8514 67.893 90.9027 67.4916 89.589 67.4916H80.3935V81.5038H93.4205V84.569H80.3935V100.333H91.1763C92.49 100.333 93.457 99.9313 94.0773 99.1286C94.6976 98.2893 95.1172 97.2676 95.3362 96.0634L95.7193 93.5456H99.1677L98.7845 103.453H67.7497Z" fill="black"/>
    <path d="M105.904 69.9547C105.576 68.787 105.119 68.0207 104.536 67.6558C103.952 67.2544 103.112 67.0537 102.018 67.0537H101.306V64.3717H118.384V67.0537H117.125C114.935 67.0537 113.841 67.9295 113.841 69.681C113.841 69.9729 113.895 70.3743 114.005 70.8852C114.114 71.3596 114.224 71.8157 114.333 72.2536L118.548 86.7584C118.986 88.218 119.405 89.8053 119.807 91.5204C120.245 93.2354 120.555 94.7133 120.737 95.9539C121.248 93.4726 121.905 90.8818 122.708 88.1815L129.659 64.7548H133.6L140.88 86.7037C141.5 88.4552 142.029 90.1885 142.467 91.9035C142.905 93.5821 143.233 94.9504 143.452 96.0087C143.744 94.695 144.073 93.1989 144.438 91.5204C144.802 89.8053 145.204 88.0721 145.642 86.3205L149.254 72.582C149.364 72.1441 149.473 71.6332 149.583 71.0494C149.729 70.4291 149.802 69.9729 149.802 69.681C149.802 67.9295 148.616 67.0537 146.244 67.0537H144.985V64.3717H158.942V67.0537H157.902C156.844 67.0537 156.005 67.3092 155.385 67.82C154.801 68.3309 154.253 69.4986 153.743 71.3231L144.985 103.453H139.238L130.152 75.8661L122.051 103.453H115.92L105.904 69.9547Z" fill="black"/>
    <path d="M174.301 104C171.345 104 168.973 103.635 167.185 102.905C165.434 102.175 164.156 101.227 163.354 100.059C162.587 98.8914 162.204 97.6507 162.204 96.3371C162.204 94.768 162.715 93.6185 163.737 92.8887C164.795 92.1224 166.054 91.7393 167.514 91.7393C167.55 94.549 168.225 96.7932 169.539 98.4717C170.852 100.114 172.677 100.935 175.012 100.935C177.238 100.935 178.99 100.369 180.267 99.238C181.544 98.0703 182.183 96.5378 182.183 94.6403C182.183 92.7428 181.471 91.2284 180.048 90.0973C178.661 88.9296 176.399 87.7072 173.261 86.43C169.612 84.9339 167.003 83.2553 165.434 81.3943C163.865 79.5333 163.08 77.198 163.08 74.3882C163.08 72.2353 163.646 70.3743 164.777 68.8053C165.908 67.1997 167.441 65.9773 169.375 65.138C171.309 64.2622 173.516 63.8244 175.998 63.8244C179.72 63.8244 182.493 64.4447 184.317 65.6853C186.178 66.926 187.109 68.3856 187.109 70.0642C187.109 71.3413 186.598 72.363 185.576 73.1293C184.591 73.8956 183.15 74.2788 181.252 74.2788C181.252 73.2206 181.051 72.1259 180.65 70.9947C180.285 69.827 179.665 68.86 178.789 68.0937C177.95 67.3274 176.8 66.9443 175.341 66.9443C173.626 66.9443 172.203 67.4369 171.071 68.4221C169.977 69.3708 169.429 70.7027 169.429 72.4178C169.429 73.622 169.685 74.6802 170.196 75.5924C170.706 76.5047 171.6 77.3804 172.878 78.2197C174.155 79.059 175.961 79.953 178.296 80.9017C181.836 82.3248 184.445 83.9122 186.124 85.6637C187.802 87.4152 188.641 89.6594 188.641 92.3961C188.641 94.7315 188.039 96.775 186.835 98.5265C185.667 100.242 184.007 101.592 181.854 102.577C179.738 103.526 177.22 104 174.301 104Z" fill="black"/>
    <path d="M194.241 103.453V100.771H195.938C196.887 100.771 197.69 100.57 198.347 100.169C199.04 99.7306 199.387 98.7089 199.387 97.1034V70.721C199.387 69.1154 199.04 68.1119 198.347 67.7105C197.69 67.2727 196.887 67.0537 195.938 67.0537H194.241V64.3717H211.976V67.0537H210.279C209.367 67.0537 208.564 67.2544 207.871 67.6558C207.214 68.0572 206.885 69.006 206.885 70.502V100.333H217.285C218.672 100.333 219.712 99.8766 220.405 98.9644C221.135 98.0521 221.646 96.9027 221.937 95.516L222.649 91.4109H225.659L225.276 103.453H194.241Z" fill="black"/>
    <path d="M228.812 103.453V100.771H229.633C230.655 100.771 231.476 100.515 232.096 100.004C232.717 99.457 233.337 98.344 233.957 96.6655L245.944 64.3717H252.184L264.007 97.2128C264.481 98.5995 265.029 99.5482 265.649 100.059C266.306 100.533 267.109 100.771 268.057 100.771H268.933V103.453H252.02V100.771H253.826C254.556 100.771 255.176 100.588 255.687 100.223C256.235 99.8584 256.508 99.2745 256.508 98.4717C256.508 98.0703 256.454 97.6872 256.344 97.3223C256.271 96.9209 256.162 96.556 256.016 96.2276L254.045 90.4804H240.307L238.555 95.6255C238.373 96.0634 238.227 96.556 238.117 97.1034C238.008 97.6142 237.953 98.0521 237.953 98.417C237.953 99.2198 238.209 99.8219 238.719 100.223C239.267 100.588 239.978 100.771 240.854 100.771H242.715V103.453H228.812ZM241.401 87.4152H252.951L249.885 78.165C249.411 76.8148 248.937 75.3917 248.462 73.8956C248.024 72.3995 247.659 71.0129 247.368 69.7357C247.076 70.9399 246.711 72.2353 246.273 73.6219C245.835 75.0086 245.361 76.4134 244.85 77.8366L241.401 87.4152Z" fill="black"/>
    <path d="M271.799 103.453V100.771H273.496C274.444 100.771 275.247 100.57 275.904 100.169C276.597 99.7306 276.944 98.7089 276.944 97.1034V70.502C276.944 69.006 276.597 68.0572 275.904 67.6558C275.211 67.2544 274.408 67.0537 273.496 67.0537H271.799V64.3717H283.129L302.56 92.7793V70.502C302.56 69.006 302.213 68.0572 301.52 67.6558C300.827 67.2544 300.024 67.0537 299.112 67.0537H297.415V64.3717H311.482V67.0537H309.785C308.873 67.0537 308.07 67.2727 307.377 67.7105C306.72 68.1119 306.391 69.1154 306.391 70.721V103.453H301.794L280.721 72.8009V97.1034C280.721 98.7089 281.049 99.7306 281.706 100.169C282.399 100.57 283.22 100.771 284.169 100.771H285.866V103.453H271.799Z" fill="black"/>
    <path d="M334.925 104C330.911 104 327.554 103.161 324.853 101.482C322.19 99.8036 320.183 97.4683 318.833 94.4761C317.519 91.4474 316.862 87.9078 316.862 83.8574C316.862 79.9165 317.555 76.4499 318.942 73.4577C320.329 70.4291 322.372 68.0755 325.072 66.3969C327.809 64.6819 331.203 63.8244 335.253 63.8244C339.267 63.8244 342.259 64.4264 344.23 65.6306C346.2 66.8348 347.185 68.3126 347.185 70.0642C347.185 71.3778 346.638 72.4543 345.543 73.2935C344.485 74.0963 343.007 74.4977 341.11 74.4977C341.11 73.33 340.909 72.1806 340.508 71.0494C340.143 69.9182 339.504 68.9877 338.592 68.2579C337.716 67.4916 336.512 67.1085 334.979 67.1085C331.221 67.1085 328.594 68.5681 327.098 71.4873C325.601 74.37 324.853 78.4934 324.853 83.8574C324.853 89.0025 325.711 92.9617 327.426 95.735C329.141 98.5082 332.005 99.8949 336.019 99.8949C337.807 99.8949 339.322 99.6577 340.562 99.1833C341.84 98.6724 342.916 98.0521 343.792 97.3223C344.704 96.556 345.47 95.7532 346.091 94.9139C346.747 95.3883 347.076 96.1546 347.076 97.2128C347.076 98.1616 346.674 99.1651 345.872 100.223C345.069 101.281 343.774 102.175 341.986 102.905C340.234 103.635 337.88 104 334.925 104Z" fill="black"/>
    <path d="M352.135 103.453V100.771H353.832C354.745 100.771 355.547 100.588 356.241 100.223C356.934 99.8219 357.281 98.8731 357.281 97.377V70.721C357.281 69.1154 356.934 68.1119 356.241 67.7105C355.584 67.2727 354.781 67.0537 353.832 67.0537H352.135V64.3717H381.419L381.692 74.2788H378.244L377.97 71.761C377.824 70.4838 377.441 69.4621 376.821 68.6958C376.237 67.893 375.288 67.4916 373.975 67.4916H364.779V81.5038H377.806V84.569H364.779V100.333H375.562C376.876 100.333 377.843 99.9313 378.463 99.1286C379.083 98.2893 379.503 97.2676 379.722 96.0634L380.105 93.5456H383.553L383.17 103.453H352.135Z" fill="black"/>
    <path d="M388.348 103.453V100.771H390.045C390.957 100.771 391.76 100.588 392.453 100.223C393.147 99.8219 393.493 98.8731 393.493 97.377V70.502C393.493 69.006 393.147 68.0572 392.453 67.6558C391.76 67.2544 390.957 67.0537 390.045 67.0537H388.348V64.3717H404.878C409.877 64.3717 413.563 65.2475 415.935 66.999C418.307 68.714 419.493 71.2683 419.493 74.6619C419.493 76.5959 419.11 78.238 418.343 79.5881C417.613 80.9382 416.646 82.0329 415.442 82.8722C414.275 83.7115 413.07 84.3683 411.83 84.8427L418.726 96.3371C419.639 97.8697 420.514 99.0008 421.354 99.7306C422.229 100.424 423.215 100.771 424.309 100.771H424.474V103.453H423.105C420.879 103.453 419.073 103.325 417.686 103.07C416.3 102.814 415.15 102.34 414.238 101.646C413.362 100.953 412.523 99.9131 411.72 98.5265L404.878 86.3753H400.937V97.377C400.937 98.8731 401.284 99.8219 401.977 100.223C402.671 100.588 403.473 100.771 404.386 100.771H406.083V103.453H388.348ZM404.276 83.4196C407.05 83.4196 408.947 82.7445 409.969 81.3943C411.027 80.0077 411.556 77.946 411.556 75.2093C411.556 72.363 410.99 70.3561 409.859 69.1884C408.765 67.9842 406.867 67.3821 404.167 67.3821H400.937V83.4196H404.276Z" fill="black"/>
    <path d="M230.234 96.9839L433.873 84.7389L433.504 76.5825L230.234 85.5393L230.234 96.9839Z" fill="hsl(45, 90%, 60%)"/>
    <path d="M246.46 97.1406C249.828 96.9186 252.378 94.0088 252.156 90.6413C251.934 87.2738 249.024 84.7238 245.656 84.9458L246.46 97.1406Z" fill="black"/>
    <path d="M419.319 79.5681C418.822 79.5681 247.152 87.5296 247.152 87.5296V93.5007C247.152 93.5007 418.822 82.0561 419.319 82.0561C419.817 82.0561 421.31 81.5585 421.31 80.5633C421.31 79.5681 419.817 79.5681 419.319 79.5681Z" fill="black"/>
<path d="M234.204 90.3418L244.439 89.907L244.665 93.0031L234.334 93.4337C233.455 93.4703 232.723 92.7675 232.723 91.8877C232.723 91.0587 233.376 90.377 234.204 90.3418Z" fill="black"/>
</svg>
